
<svg version="1.0" xmlns="http://www.w3.org/2000/svg"
 width="820.000000pt" height="819.000000pt" viewBox="0 0 820.000000 819.000000"
 preserveAspectRatio="xMidYMid meet">

<g transform="translate(0.000000,819.000000) scale(0.100000,-0.100000)"
fill="#000000" stroke="none">
<path d="M3849 7410 c-832 -70 -1578 -423 -2148 -1015 -475 -495 -789 -1129
-890 -1797 -108 -713 14 -1425 356 -2071 79 -149 222 -365 339 -512 113 -141
368 -396 509 -509 450 -358 970 -593 1515 -686 209 -35 332 -45 575 -45 253 1
371 11 595 51 1013 185 1897 843 2363 1761 249 491 360 958 361 1508 0 335
-37 609 -119 894 -372 1295 -1454 2228 -2781 2401 -182 24 -511 34 -675 20z
m636 -265 c1182 -157 2144 -944 2531 -2069 255 -739 204 -1592 -137 -2301
-321 -668 -885 -1212 -1554 -1498 -276 -119 -551 -194 -852 -234 -177 -23
-570 -23 -748 1 -701 92 -1313 392 -1805 886 -498 499 -802 1134 -881 1840
-18 162 -16 534 5 692 84 648 343 1216 775 1695 519 576 1252 938 2032 1003
146 12 492 4 634 -15z"/>
<path d="M3840 6639 c-453 -46 -909 -227 -1286 -510 -693 -520 -1080 -1388
-1004 -2249 77 -856 564 -1606 1315 -2022 406 -225 839 -329 1315 -315 751 21
1433 361 1912 952 287 353 471 777 545 1255 27 174 24 527 -6 718 -68 444
-236 837 -510 1192 -86 112 -304 335 -411 419 -481 383 -1030 575 -1625 570
-88 -1 -198 -6 -245 -10z m635 -268 c330 -58 604 -164 880 -341 175 -112 383
-296 522 -462 150 -180 313 -463 393 -681 42 -118 95 -328 115 -461 106 -717
-146 -1464 -667 -1972 -354 -346 -779 -559 -1280 -641 -148 -25 -521 -24 -678
0 -486 77 -919 292 -1269 632 -429 416 -671 961 -697 1565 -18 420 99 897 304
1234 23 37 42 70 42 72 0 2 32 49 71 103 385 539 945 876 1604 966 144 20 513
12 660 -14z"/>
</g>
</svg>
